<?xml version="1.0" encoding="UTF-8"?>
<!DOCTYPE svg PUBLIC "-//W3C//DTD SVG 1.1//EN" "http://www.w3.org/Graphics/SVG/1.1/DTD/svg11.dtd">
<svg xmlns="http://www.w3.org/2000/svg" version="1.1" width="80px" height="80px" style="shape-rendering:geometricPrecision; text-rendering:geometricPrecision; image-rendering:optimizeQuality; fill-rule:evenodd; clip-rule:evenodd" xmlns:xlink="http://www.w3.org/1999/xlink">
<g><path style="opacity:0.892" fill="#000000" d="M -0.5,-0.5 C 5.5,-0.5 11.5,-0.5 17.5,-0.5C 18.3629,0.940261 18.3629,2.27359 17.5,3.5C 13.2172,4.49224 8.88387,4.82557 4.5,4.5C 4.82557,8.88387 4.49224,13.2172 3.5,17.5C 2.27359,18.3629 0.940261,18.3629 -0.5,17.5C -0.5,11.5 -0.5,5.5 -0.5,-0.5 Z"/></g>
<g><path style="opacity:0.893" fill="#000000" d="M 61.5,-0.5 C 67.5,-0.5 73.5,-0.5 79.5,-0.5C 79.5,5.5 79.5,11.5 79.5,17.5C 78.0597,18.3629 76.7264,18.3629 75.5,17.5C 74.5078,13.2172 74.1744,8.88387 74.5,4.5C 70.1161,4.82557 65.7828,4.49224 61.5,3.5C 60.6371,2.27359 60.6371,0.940261 61.5,-0.5 Z"/></g>
<g><path style="opacity:0.899" fill="#000000" d="M 14.5,12.5 C 31.17,12.3334 47.8367,12.5001 64.5,13C 65.6406,18.7504 65.8072,24.5837 65,30.5C 61.9269,31.6168 58.7603,31.7835 55.5,31C 54.565,28.6194 54.2317,26.1194 54.5,23.5C 51.2234,23.2161 48.0567,23.5495 45,24.5C 44.3333,36.5 44.3333,48.5 45,60.5C 47,61.1667 49,61.8333 51,62.5C 51.6667,65.5 51.6667,68.5 51,71.5C 43.3333,72.8333 35.6667,72.8333 28,71.5C 27.3333,68.5 27.3333,65.5 28,62.5C 30,61.8333 32,61.1667 34,60.5C 34.6667,48.5 34.6667,36.5 34,24.5C 30.9433,23.5495 27.7766,23.2161 24.5,23.5C 24.7683,26.1194 24.435,28.6194 23.5,31C 20.2397,31.7835 17.0731,31.6168 14,30.5C 13.2124,24.418 13.379,18.418 14.5,12.5 Z"/></g>
<g><path style="opacity:0.893" fill="#000000" d="M 17.5,79.5 C 11.5,79.5 5.5,79.5 -0.5,79.5C -0.5,73.5 -0.5,67.5 -0.5,61.5C 0.940261,60.6371 2.27359,60.6371 3.5,61.5C 4.49224,65.7828 4.82557,70.1161 4.5,74.5C 8.88387,74.1744 13.2172,74.5078 17.5,75.5C 18.3629,76.7264 18.3629,78.0597 17.5,79.5 Z"/></g>
<g><path style="opacity:0.894" fill="#000000" d="M 79.5,61.5 C 79.5,67.5 79.5,73.5 79.5,79.5C 73.5,79.5 67.5,79.5 61.5,79.5C 60.6371,78.0597 60.6371,76.7264 61.5,75.5C 65.7828,74.5078 70.1161,74.1744 74.5,74.5C 74.1744,70.1161 74.5078,65.7828 75.5,61.5C 76.7264,60.6371 78.0597,60.6371 79.5,61.5 Z"/></g>
</svg>
