<?xml version="1.0" encoding="UTF-8"?>
<!DOCTYPE svg PUBLIC "-//W3C//DTD SVG 1.1//EN" "http://www.w3.org/Graphics/SVG/1.1/DTD/svg11.dtd">
<svg xmlns="http://www.w3.org/2000/svg" version="1.1" width="80px" height="80px" style="shape-rendering:geometricPrecision; text-rendering:geometricPrecision; image-rendering:optimizeQuality; fill-rule:evenodd; clip-rule:evenodd" xmlns:xlink="http://www.w3.org/1999/xlink">
<g><path style="opacity:0.75" fill="#000000" d="M 28.5,-0.5 C 34.5,-0.5 40.5,-0.5 46.5,-0.5C 66.1384,5.48797 75.8051,18.8213 75.5,39.5C 74.448,39.3505 73.448,39.5172 72.5,40C 75.5116,43.154 77.8449,46.654 79.5,50.5C 79.5,55.1667 79.5,59.8333 79.5,64.5C 76.8333,71.8333 71.8333,76.8333 64.5,79.5C 59.8333,79.5 55.1667,79.5 50.5,79.5C 46.654,77.8449 43.154,75.5116 40,72.5C 39.5172,73.448 39.3505,74.448 39.5,75.5C 18.8213,75.8051 5.48797,66.1384 -0.5,46.5C -0.5,40.5 -0.5,34.5 -0.5,28.5C 4.16667,13.8333 13.8333,4.16667 28.5,-0.5 Z M 35.5,4.5 C 38.3245,4.08073 40.4912,5.08073 42,7.5C 44.4273,11.7873 46.2606,16.2873 47.5,21C 40.8085,21.8309 34.1418,21.6642 27.5,20.5C 29.1257,14.5819 31.7923,9.24861 35.5,4.5 Z M 26.5,5.5 C 27.0431,5.55999 27.3764,5.89333 27.5,6.5C 24.8388,11.1501 23.1722,16.1501 22.5,21.5C 17.8215,21.6658 13.1548,21.4992 8.5,21C 13.1686,14.1559 19.1686,8.98925 26.5,5.5 Z M 48.5,6.5 C 56.1532,9.17482 62.1532,14.0081 66.5,21C 61.8452,21.4992 57.1785,21.6658 52.5,21.5C 51.9177,16.2348 50.5843,11.2348 48.5,6.5 Z M 5.5,26.5 C 10.8333,26.5 16.1667,26.5 21.5,26.5C 21.5,33.8333 21.5,41.1667 21.5,48.5C 16.1667,48.5 10.8333,48.5 5.5,48.5C 4.16667,41.1667 4.16667,33.8333 5.5,26.5 Z M 70.5,38.5 C 57.6969,31.8257 46.8635,34.1591 38,45.5C 33.2662,53.9496 33.4328,62.283 38.5,70.5C 36.0968,70.607 34.2635,69.607 33,67.5C 30.782,63.5165 28.9487,59.3498 27.5,55C 32.0829,55.6121 33.9163,53.7787 33,49.5C 30.9592,48.5769 28.7925,48.2436 26.5,48.5C 26.5,41.1667 26.5,33.8333 26.5,26.5C 33.8333,26.5 41.1667,26.5 48.5,26.5C 48.5,28.8333 48.5,31.1667 48.5,33.5C 50.1667,33.5 51.8333,33.5 53.5,33.5C 53.5,31.1667 53.5,28.8333 53.5,26.5C 58.8333,26.5 64.1667,26.5 69.5,26.5C 70.1621,30.4659 70.4955,34.4659 70.5,38.5 Z M 72.5,64.5 C 72.067,61.7147 70.7337,59.3813 68.5,57.5C 70.9075,54.8691 70.9075,52.3691 68.5,50C 61.4307,48.1986 54.4307,46.1986 47.5,44C 59.2952,37.4768 68.1285,40.3101 74,52.5C 74.6667,55.8333 74.6667,59.1667 74,62.5C 73.7216,63.4158 73.2216,64.0825 72.5,64.5 Z M 45.5,45.5 C 47.4956,53.4825 49.4956,61.4825 51.5,69.5C 54.5468,70.1446 56.7135,69.1446 58,66.5C 59.7194,68.5571 61.7194,70.2237 64,71.5C 66.9868,69.3459 69.8202,67.0125 72.5,64.5C 68.4218,72.7032 61.7551,75.8699 52.5,74C 39.3966,67.0692 37.0632,57.5692 45.5,45.5 Z M 52.5,51.5 C 55.4786,52.3173 58.4786,53.1506 61.5,54C 61.6932,55.6453 61.8598,57.4787 62,59.5C 63.1667,60.6667 64.3333,61.8333 65.5,63C 65,63.5 64.5,64 64,64.5C 62.0315,60.8048 59.1982,59.8048 55.5,61.5C 54.1882,58.2512 53.1882,54.9179 52.5,51.5 Z M 26.5,68.5 C 19.3999,66.0696 13.7332,61.7363 9.5,55.5C 13.7828,54.5078 18.1161,54.1744 22.5,54.5C 23.6304,59.2244 24.9637,63.8911 26.5,68.5 Z"/></g>
</svg>
